<mxfile modified="2020-02-12T17:53:03.937Z" host="www.draw.io" agent="Mozilla/5.0 (Windows NT 10.0; Win64; x64) AppleWebKit/537.36 (KHTML, like Gecko) Chrome/79.0.3945.130 Safari/537.36" etag="WBo0EE7vyZ0GoioRxqi9" version="12.6.8" type="github">
  <diagram name="Page-1" id="97a40813-6b03-0c74-37c1-0168de264b11">
    <mxGraphModel dx="617" dy="576" grid="1" gridSize="10" guides="1" tooltips="1" connect="1" arrows="1" fold="1" page="1" pageScale="1" pageWidth="500" pageHeight="300" background="#ffffff" math="0" shadow="0">
      <root>
        <mxCell id="0"/>
        <mxCell id="1" parent="0"/>
        <mxCell id="CwLAQfS68uKpEtF0Guj3-4" value="" style="group;movable=1;resizable=1;rotatable=1;deletable=1;editable=1;connectable=1;fontSize=40;" vertex="1" connectable="0" parent="1">
          <mxGeometry x="30" y="80" width="350" height="25" as="geometry"/>
        </mxCell>
        <mxCell id="CwLAQfS68uKpEtF0Guj3-2" value="&lt;font face=&quot;Courier New&quot; style=&quot;font-size: 50px&quot;&gt;Hello_World&lt;/font&gt;" style="text;html=1;strokeColor=none;fillColor=none;align=left;verticalAlign=middle;whiteSpace=wrap;rounded=0;fontSize=20;fontStyle=0" vertex="1" parent="CwLAQfS68uKpEtF0Guj3-4">
          <mxGeometry y="-30" width="350" height="55" as="geometry"/>
        </mxCell>
        <mxCell id="CwLAQfS68uKpEtF0Guj3-3" value="&lt;font face=&quot;Courier New&quot; style=&quot;font-size: 17px;&quot;&gt;1&amp;nbsp; 2&amp;nbsp; 3&amp;nbsp; 4&amp;nbsp; 5&amp;nbsp; 6&amp;nbsp; 7&amp;nbsp; 8&amp;nbsp; 9 10 11&lt;/font&gt;" style="text;html=1;strokeColor=none;fillColor=none;align=left;verticalAlign=middle;whiteSpace=wrap;rounded=0;fontSize=17;fontStyle=0" vertex="1" parent="1">
          <mxGeometry x="39" y="130.45" width="340" height="20" as="geometry"/>
        </mxCell>
      </root>
    </mxGraphModel>
  </diagram>
</mxfile>
